<?xml version="1.0" encoding="UTF-8"?>
<svg width="149px" height="40px" viewBox="0 0 149 40" version="1.1" xmlns="http://www.w3.org/2000/svg" xmlns:xlink="http://www.w3.org/1999/xlink">
    <!-- Generator: Sketch 52.4 (67378) - http://www.bohemiancoding.com/sketch -->
    <title>Logo</title>
    <desc>Created with Sketch.</desc>
    <defs>
        <path d="M12.442,2.903 L16.966,2.903 L16.966,23 L12.442,23 L12.442,14.474 L4.844,14.474 L4.844,23 L0.32,23 L0.32,2.903 L4.844,2.903 L4.844,10.588 L12.442,10.588 L12.442,2.903 Z M19.2618332,15.489 C19.2618332,14.1356599 19.4696645,12.9515051 19.8853332,11.9365 C20.301002,10.9214949 20.8471632,10.07567 21.5238332,9.399 C22.2005033,8.72232995 22.9786622,8.21000174 23.8583332,7.862 C24.7380043,7.51399826 25.6418286,7.34 26.5698332,7.34 C28.7351774,7.34 30.4461603,8.00216004 31.7028332,9.3265 C32.9595062,10.65084 33.5878332,12.5986538 33.5878332,15.17 C33.5878332,15.4213346 33.5781667,15.6968318 33.5588332,15.9965 C33.5394998,16.2961682 33.5201667,16.5619988 33.5008332,16.794 L23.6988332,16.794 C23.7955004,17.6833378 24.2111629,18.3889974 24.9458332,18.911 C25.6805036,19.4330026 26.6664937,19.694 27.9038332,19.694 C28.6965039,19.694 29.4746627,19.6215007 30.2383332,19.4765 C31.0020037,19.3314993 31.6254975,19.1526677 32.1088332,18.94 L32.6888332,22.449 C32.4568321,22.5650006 32.1475018,22.6809994 31.7608332,22.797 C31.3741646,22.9130006 30.9440023,23.0144996 30.4703332,23.1015 C29.9966642,23.1885004 29.4891693,23.2609997 28.9478332,23.319 C28.4064972,23.3770003 27.8651693,23.406 27.3238332,23.406 C25.9511597,23.406 24.7573383,23.203002 23.7423332,22.797 C22.7273282,22.390998 21.8863366,21.8351702 21.2193332,21.1295 C20.5523299,20.4238298 20.0593348,19.5876715 19.7403332,18.621 C19.4213316,17.6543285 19.2618332,16.6103389 19.2618332,15.489 Z M29.4118332,13.836 C29.3924998,13.4686648 29.3296671,13.1110017 29.2233332,12.763 C29.1169994,12.4149983 28.9526677,12.105668 28.7303332,11.835 C28.5079988,11.564332 28.2276683,11.3420009 27.8893332,11.168 C27.5509982,10.9939991 27.1305024,10.907 26.6278332,10.907 C26.1444975,10.907 25.728835,10.9891658 25.3808332,11.1535 C25.0328315,11.3178342 24.7428344,11.535332 24.5108332,11.806 C24.2788321,12.076668 24.1000005,12.3908315 23.9743332,12.7485 C23.8486659,13.1061685 23.7568335,13.4686648 23.6988332,13.836 L29.4118332,13.836 Z M43.9746665,14.909 C43.9746665,13.516993 43.7958349,12.5310029 43.4381665,11.951 C43.080498,11.3709971 42.4666708,11.081 41.5966665,11.081 C41.3259984,11.081 41.0456679,11.0954999 40.7556665,11.1245 C40.465665,11.1535001 40.1853345,11.1873331 39.9146665,11.226 L39.9146665,23 L35.5936665,23 L35.5936665,8.268 C35.9610016,8.17133285 36.391164,8.06983386 36.8841665,7.9635 C37.3771689,7.85716613 37.8991637,7.76050043 38.4501665,7.6735 C39.0011692,7.58649956 39.5666636,7.51883357 40.1466665,7.4705 C40.7266694,7.42216642 41.296997,7.398 41.8576665,7.398 C42.959672,7.398 43.8538297,7.53816526 44.5401665,7.8185 C45.2265032,8.09883473 45.7919976,8.4323314 46.2366665,8.819 C46.8553362,8.37433111 47.5658291,8.02633459 48.3681665,7.775 C49.1705038,7.52366541 49.9099964,7.398 50.5866665,7.398 C51.8046726,7.398 52.8051625,7.56716497 53.5881665,7.9055 C54.3711704,8.24383502 54.9946641,8.72233024 55.4586665,9.341 C55.9226688,9.95966976 56.2416656,10.6943291 56.4156665,11.545 C56.5896673,12.3956709 56.6766665,13.3429948 56.6766665,14.387 L56.6766665,23 L52.3556665,23 L52.3556665,14.909 C52.3556665,13.516993 52.1768349,12.5310029 51.8191665,11.951 C51.461498,11.3709971 50.8476708,11.081 49.9776665,11.081 C49.7456653,11.081 49.4218352,11.1389994 49.0061665,11.255 C48.5904977,11.3710006 48.2473345,11.5159991 47.9766665,11.69 C48.1120005,12.1346689 48.1989996,12.6034975 48.2376665,13.0965 C48.2763333,13.5895025 48.2956665,14.1163305 48.2956665,14.677 L48.2956665,23 L43.9746665,23 L43.9746665,14.909 Z M63.5834997,23 L59.2624997,23 L59.2624997,7.746 L63.5834997,7.746 L63.5834997,23 Z M63.9894997,3.338 C63.9894997,4.13067063 63.7333356,4.75416439 63.2209997,5.2085 C62.7086638,5.6628356 62.1045032,5.89 61.4084997,5.89 C60.7124962,5.89 60.1083356,5.6628356 59.5959997,5.2085 C59.0836638,4.75416439 58.8274997,4.13067063 58.8274997,3.338 C58.8274997,2.54532937 59.0836638,1.9218356 59.5959997,1.4675 C60.1083356,1.01316439 60.7124962,0.786 61.4084997,0.786 C62.1045032,0.786 62.7086638,1.01316439 63.2209997,1.4675 C63.7333356,1.9218356 63.9894997,2.54532937 63.9894997,3.338 Z M80.5823329,15.344 C80.5823329,16.5426727 80.4083347,17.6398284 80.0603329,18.6355 C79.7123312,19.6311716 79.2096695,20.4818298 78.5523329,21.1875 C77.8949963,21.8931702 77.1071708,22.4393314 76.1888329,22.826 C75.270495,23.2126686 74.2410053,23.406 73.1003329,23.406 C71.978994,23.406 70.9591708,23.2126686 70.0408329,22.826 C69.122495,22.4393314 68.3346695,21.8931702 67.6773329,21.1875 C67.0199963,20.4818298 66.5076681,19.6311716 66.1403329,18.6355 C65.7729978,17.6398284 65.5893329,16.5426727 65.5893329,15.344 C65.5893329,14.1453273 65.777831,13.0530049 66.1548329,12.067 C66.5318348,11.0809951 67.0538296,10.2400035 67.7208329,9.544 C68.3878363,8.84799652 69.180495,8.3066686 70.0988329,7.92 C71.0171708,7.5333314 72.0176608,7.34 73.1003329,7.34 C74.2023384,7.34 75.212495,7.5333314 76.1308329,7.92 C77.0491708,8.3066686 77.8369963,8.84799652 78.4943329,9.544 C79.1516695,10.2400035 79.6639978,11.0809951 80.0313329,12.067 C80.3986681,13.0530049 80.5823329,14.1453273 80.5823329,15.344 Z M76.1743329,15.344 C76.1743329,14.0099933 75.9085022,12.9611705 75.3768329,12.1975 C74.8451636,11.4338295 74.0863379,11.052 73.1003329,11.052 C72.114328,11.052 71.350669,11.4338295 70.8093329,12.1975 C70.2679969,12.9611705 69.9973329,14.0099933 69.9973329,15.344 C69.9973329,16.6780067 70.2679969,17.7364961 70.8093329,18.5195 C71.350669,19.3025039 72.114328,19.694 73.1003329,19.694 C74.0863379,19.694 74.8451636,19.3025039 75.3768329,18.5195 C75.9085022,17.7364961 76.1743329,16.6780067 76.1743329,15.344 Z M86.9671662,19.897 C87.7598368,19.897 88.3204978,19.8196674 88.6491662,19.665 C88.9778345,19.5103326 89.1421662,19.2106689 89.1421662,18.766 C89.1421662,18.4179983 88.9295016,18.1135013 88.5041662,17.8525 C88.0788307,17.5914987 87.4311705,17.2966683 86.5611662,16.968 C85.8844961,16.7166654 85.2706689,16.455668 84.7196662,16.185 C84.1686634,15.914332 83.6998348,15.5905019 83.3131662,15.2135 C82.9264976,14.8364981 82.6268339,14.3870026 82.4141662,13.865 C82.2014984,13.3429974 82.0951662,12.7146703 82.0951662,11.98 C82.0951662,10.5493262 82.6268275,9.41833749 83.6901662,8.587 C84.7535048,7.75566251 86.2131569,7.34 88.0691662,7.34 C88.9971708,7.34 89.8864952,7.42216585 90.7371662,7.5865 C91.5878371,7.75083415 92.264497,7.9296657 92.7671662,8.123 L92.0131662,11.487 C91.510497,11.3129991 90.9643358,11.158334 90.3746662,11.023 C89.7849965,10.887666 89.1228365,10.82 88.3881662,10.82 C87.0348261,10.82 86.3581662,11.1969962 86.3581662,11.951 C86.3581662,12.1250009 86.3871659,12.279666 86.4451662,12.415 C86.5031664,12.550334 86.6191653,12.6808327 86.7931662,12.8065 C86.967167,12.9321673 87.203998,13.0674993 87.5036662,13.2125 C87.8033343,13.3575007 88.1851638,13.5169991 88.6491662,13.691 C89.5965042,14.0390017 90.3794964,14.382165 90.9981662,14.7205 C91.6168359,15.058835 92.1049977,15.4261647 92.4626662,15.8225 C92.8203346,16.2188353 93.0716654,16.6586643 93.2166662,17.142 C93.3616669,17.6253358 93.4341662,18.1859968 93.4341662,18.824 C93.4341662,20.3320075 92.8686718,21.4726628 91.7376662,22.246 C90.6066605,23.0193372 89.0068432,23.406 86.9381662,23.406 C85.5848261,23.406 84.4586706,23.2900012 83.5596662,23.058 C82.6606617,22.8259988 82.0371679,22.6326674 81.6891662,22.478 L82.4141662,18.969 C83.1488365,19.2590014 83.902829,19.4861658 84.6761662,19.6505 C85.4495034,19.8148342 86.2131624,19.897 86.9671662,19.897 Z" id="path-1"></path>
        <path d="M-35.6622731,23 L-40.4281502,13.3882598 L-22.1839685,8.48357021 L-22.1322681,8.46815266 L-28.233427,20.7728667 L-35.6622731,23 Z M-47.6861805,-1.24961284 L-55,-16 L-10,-16 L-19.0075028,2.16617895 L-47.6861805,-1.24961284 Z" id="path-3"></path>
    </defs>
    <g id="Page-1" stroke="none" stroke-width="1" fill="none" fill-rule="evenodd">
        <g id="Landing-Page" transform="translate(-40.000000, -40.000000)">
            <g id="Logo" transform="translate(40.000000, 40.000000)">
                <g id="Brand" transform="translate(55.000000, 16.000000)">
                    <g id="Mask-+-colors/brand_blue-Mask">
                        <g id="colors/brand_blue">
                            <mask id="mask-2" fill="white">
                                <use xlink:href="#path-1"></use>
                            </mask>
                            <use id="Mask" fill="#7C7C7C" xlink:href="#path-1"></use>
                            <g mask="url(#mask-2)" fill="#1D4095" id="Rectangle">
                                <g transform="translate(-5.000000, -4.000000)">
                                    <rect x="0" y="0" width="99" height="32"></rect>
                                </g>
                            </g>
                        </g>
                        <mask id="mask-4" fill="white">
                            <use xlink:href="#path-3"></use>
                        </mask>
                        <use id="Mask" fill="#7C7C7C" xlink:href="#path-3"></use>
                        <g id="colors/brand_blue" mask="url(#mask-4)" fill="#1D4095">
                            <g transform="translate(-55.000000, -16.000000)" id="Rectangle">
                                <rect x="0" y="0" width="22" height="44"></rect>
                            </g>
                        </g>
                    </g>
                </g>
            </g>
        </g>
    </g>
</svg>